<svg width="37" height="31" viewBox="0 0 37 31" fill="none" xmlns="http://www.w3.org/2000/svg">
<g id="Asset 1 2" clip-path="url(#clip0_3_16)">
<g id="Graphic Elements">
<path id="Vector" d="M36.9273 1.17789C36.7939 0.79788 36.6363 0.693276 36.3897 0.601914C35.8495 0.400651 34.9334 0.703869 34.9334 0.703869C34.9334 0.703869 2.51517 12.1573 0.662812 13.4244C0.26405 13.6972 0.130681 13.8561 0.0646693 14.0428C-0.255957 14.9458 0.742295 15.3444 0.742295 15.3444L9.09744 18.0204C9.09744 18.0204 9.40863 18.0654 9.52045 17.9952C11.4213 16.8141 28.6449 6.12471 29.6377 5.76588C29.794 5.71954 29.9099 5.7725 29.8789 5.87843C29.4815 7.25019 14.5225 20.319 14.5225 20.319C14.5225 20.319 14.4659 20.3879 14.4295 20.4699L14.4093 20.458L13.6293 28.6039C13.6293 28.6039 13.3033 31.0998 15.8414 28.6039C17.6331 26.8428 19.3656 25.3704 20.2331 24.6528C23.1053 26.6018 26.1984 28.7588 27.5321 29.8869C28.2016 30.4536 28.7634 30.545 29.2241 30.5291C30.4905 30.4827 30.8448 29.115 30.8448 29.115C30.8448 29.115 36.7521 5.74602 36.9502 2.61454C36.969 2.30735 36.996 2.11271 36.9987 1.90217C37.0027 1.60955 36.9744 1.3156 36.9259 1.17789H36.9273Z" fill="white"/>
</g>
</g>
<defs>
<clipPath id="clip0_3_16">
<rect width="37" height="30" fill="white" transform="translate(0 0.531738)"/>
</clipPath>
</defs>
</svg>
