<svg width="38" height="31" viewBox="0 0 38 31" fill="none" xmlns="http://www.w3.org/2000/svg">
<path id="Vector" d="M33.5458 5.28415C35.2515 4.26504 36.3809 2.87404 36.9339 1.10499C35.3762 1.92502 33.7045 2.5209 31.971 2.87404C30.487 1.32073 28.6082 0.531738 26.3558 0.531738C24.154 0.531738 22.2942 1.28374 20.7764 2.74666C20.0434 3.44134 19.4639 4.27438 19.0733 5.19474C18.6827 6.11509 18.4893 7.10337 18.505 8.09903C18.505 8.73392 18.5873 9.301 18.752 9.78179C12.2585 9.56605 6.88395 6.94431 2.6493 1.89808C1.93156 3.13293 1.57269 4.39038 1.57269 5.69097C1.57269 8.36408 2.73163 10.4824 5.04528 12.0378C3.7259 11.9289 2.56275 11.6043 1.57269 11.0721C1.57269 12.9809 2.14899 14.5753 3.30371 15.9786C4.42539 17.3461 6.00615 18.2852 7.76846 18.6312C7.10983 18.7956 6.41531 18.8736 5.70179 18.8736C5.04316 18.8736 4.57663 18.8202 4.30009 18.7031C4.78562 20.2585 5.70179 21.52 7.02539 22.4857C8.33386 23.4527 9.92552 23.9876 11.5682 24.0123C8.7564 26.1594 5.54136 27.2217 1.90412 27.2217C1.01328 27.2217 0.38209 27.2094 0 27.1436C3.58236 29.4078 7.57002 30.5317 11.982 30.5317C16.4974 30.5317 20.4872 29.4181 23.9598 27.1909C27.4324 24.976 29.9951 22.2433 31.6417 19.0257C33.27 15.9123 34.1178 12.4679 34.1158 8.97431V8.01273C35.6335 6.92361 36.9474 5.58848 38 4.06574C36.5785 4.66542 35.0802 5.07527 33.5458 5.28415Z" fill="#F8F8F8"/>
</svg>
