<svg width="80" height="67" viewBox="0 0 80 67" fill="none" xmlns="http://www.w3.org/2000/svg">
<g clip-path="url(#clip0_50_93)">
<path d="M14.7279 -0.0132475C9.65028 0.389676 5.29648 3.69513 3.66986 8.37725C3.02444 10.2277 2.81552 12.0894 3.03563 13.9921C3.50198 17.9765 5.82998 21.7297 9.24363 23.9905C9.78459 24.3487 10.389 24.7031 10.7098 24.8523C10.7844 24.8896 10.8479 24.9307 10.8479 24.9419C10.8479 24.9568 10.68 25.3112 10.4785 25.7291C8.71759 29.3554 7.6879 33.3212 7.3969 37.5705L7.37079 37.9399L7.10217 38.1824C3.69598 41.2826 1.66644 44.9127 1.07325 48.9494C0.744939 51.1916 0.879247 53.4972 1.44259 55.4297C1.98355 57.2727 2.89013 58.7762 4.28917 60.1454C5.34871 61.1863 6.52017 61.9884 8.09455 62.7532C12.329 64.8089 18.4251 65.902 27.8788 66.2974C34.1614 66.5586 45.3724 66.5698 51.8677 66.3161C63.9106 65.846 70.9244 64.2157 75.0357 60.9214C75.5655 60.4961 76.4124 59.6492 76.8079 59.153C78.0539 57.5824 78.8337 55.717 79.1359 53.5755C79.3299 52.2101 79.3187 50.4044 79.106 48.9307C78.7628 46.5393 77.8338 44.1591 76.4199 42.0474C75.6327 40.8648 74.9499 40.0515 73.7486 38.8576L72.7935 37.9026L72.745 37.3094C72.4354 33.1757 71.3945 29.277 69.6037 25.5425C69.4396 25.2067 69.3127 24.9269 69.3165 24.9232C69.3239 24.9195 69.5291 24.8113 69.7754 24.6807C72.4279 23.2891 74.7 20.8828 75.9684 18.1146C76.8601 16.1634 77.263 14.2346 77.207 12.1826C77.1809 11.3656 77.125 10.8433 76.972 10.0785C75.8901 4.65767 71.4206 0.639637 65.7834 0.0128679C65.2387 -0.0468245 63.8024 -0.0468245 63.2652 0.0165986C60.7655 0.300137 58.5756 1.20671 56.6617 2.75871C56.2849 3.06091 55.4156 3.91525 55.0612 4.32937C54.1061 5.43741 53.304 6.77675 52.7444 8.19071C52.5765 8.61229 52.3266 9.3771 52.237 9.72779L52.1773 9.97402L51.5431 9.7539C45.5216 7.65721 38.5227 7.29533 32.1506 8.75406C30.9567 9.0264 29.4607 9.45917 28.431 9.82852L28.0131 9.97775L27.9721 9.82106C27.7184 8.82494 27.2297 7.59006 26.7297 6.6611C26.4276 6.10521 25.7896 5.14641 25.3755 4.62783C24.7189 3.81079 23.6742 2.83333 22.7677 2.19537C21.1187 1.0351 19.1376 0.281483 17.082 0.0389832C16.4888 -0.0319014 15.2875 -0.0617475 14.7279 -0.0132475ZM65.9177 4.75468C68.4808 5.22102 70.6819 6.85883 71.775 9.10848C72.8532 11.332 72.8047 13.9585 71.6407 16.3051C71.0699 17.4654 70.4991 18.2265 69.5179 19.148C68.3912 20.2075 67.0556 20.9387 65.4887 21.3566C64.8619 21.5245 64.5784 21.6774 64.2165 22.0468C63.8695 22.3937 63.7166 22.6661 63.5972 23.1511C63.4368 23.7853 63.5524 24.3711 63.9777 25.0612C65.0224 26.7737 65.7946 28.3182 66.3692 29.8478C67.1265 31.8624 67.6787 34.127 67.9435 36.3021C68.0368 37.0706 68.0779 37.5407 68.1338 38.5219C68.2159 40.044 68.3353 40.3014 69.3724 41.1707C70.3462 41.9878 71.3385 43.0249 72.0287 43.9501C73.8158 46.3341 74.6925 48.9979 74.5955 51.7288C74.5358 53.3517 74.1665 54.6127 73.4166 55.7244C71.7116 58.2614 68.1301 59.8134 61.8661 60.7349C58.3182 61.2534 54.3337 61.5407 47.969 61.731C45.8984 61.7907 37.0006 61.8168 34.3704 61.7683C27.8303 61.6489 23.4467 61.3915 19.5779 60.9028C11.5231 59.8917 7.43048 57.9293 6.09113 54.4336C5.84117 53.777 5.71432 53.2174 5.62105 52.363C5.56509 51.8556 5.59867 50.3559 5.68075 49.7888C5.95309 47.8376 6.68805 46.0133 7.8819 44.3046C8.68402 43.1629 9.60552 42.178 10.8777 41.0998C11.1165 40.8984 11.359 40.682 11.4112 40.626C11.6836 40.3313 11.9372 39.7717 11.982 39.3799C11.9932 39.268 12.0231 38.8315 12.0417 38.4099C12.0827 37.5929 12.1536 36.7647 12.2469 36.0409C12.4073 34.806 12.758 33.06 13.0378 32.1348L13.1348 31.8139L13.5303 31.7916C14.8995 31.7095 15.3285 31.6796 16.1456 31.5976C27.5431 30.4634 36.7692 24.8747 39.2166 17.6184C39.7166 16.1372 39.9479 14.4472 39.8322 13.1452C39.7837 12.593 39.7837 12.5594 39.8434 12.5408C40.0262 12.496 42.2796 12.6117 43.4361 12.7273C46.5439 13.037 49.7934 13.9212 52.6287 15.2232C53.3525 15.5552 53.5614 15.6224 53.9606 15.6448C54.8971 15.6933 55.7663 15.1971 56.1692 14.3801C56.3707 13.9734 56.3968 13.8503 56.4379 13.1153C56.4826 12.3692 56.561 11.776 56.6841 11.235C57.1131 9.35844 58.1354 7.63856 59.5157 6.48202C60.6648 5.51575 62.0788 4.89271 63.586 4.68752C64.0449 4.6241 65.4253 4.66514 65.9177 4.75468Z" fill="#03F0F3"/>
<path d="M29.054 33.7278C27.9459 33.9778 27.1177 34.7388 26.7931 35.817C26.7036 36.108 26.6924 36.2162 26.6924 36.6378C26.6924 37.0594 26.7036 37.1676 26.7931 37.4586C26.92 37.8727 27.1028 38.2196 27.3527 38.5144C27.7668 38.9994 28.2183 39.2978 28.8115 39.4769C29.1025 39.5664 29.2107 39.5776 29.6322 39.5776C30.0538 39.5776 30.162 39.5664 30.453 39.4769C31.4678 39.171 32.2251 38.395 32.5087 37.3653C32.6131 36.9959 32.6057 36.2461 32.4937 35.8618C32.199 34.8358 31.4417 34.0748 30.4269 33.78C30.0687 33.6793 29.3935 33.6532 29.054 33.7278Z" fill="#03F0F3"/>
<path d="M50.0397 33.7091C49.4391 33.8211 48.913 34.1009 48.4504 34.5635C47.8983 35.1156 47.6408 35.6976 47.6073 36.4736C47.5812 36.981 47.6297 37.2981 47.7863 37.7048C48.1445 38.6338 48.969 39.3277 49.9614 39.5329C50.1479 39.5702 50.4091 39.6038 50.5434 39.6038C51.7298 39.6038 52.8714 38.8166 53.3004 37.7048C53.4571 37.2981 53.5056 36.981 53.4795 36.4736C53.4459 35.6976 53.1885 35.1156 52.6363 34.5635C52.0581 33.9852 51.4425 33.7129 50.6553 33.6905C50.4203 33.683 50.1442 33.6905 50.0397 33.7091Z" fill="#03F0F3"/>
<path d="M36.1985 46.1402C36.0045 46.3081 36.0008 46.7894 36.1836 47.3378C36.4596 48.166 37.2767 49.0241 38.2206 49.4681L38.4481 49.5763L38.2877 49.774C38.1982 49.8822 38.0639 50.0836 37.9893 50.2254C37.6348 50.8746 37.4893 51.0835 37.1871 51.3931C36.5492 52.0423 35.7881 52.3631 34.8927 52.3631C34.4823 52.3631 34.1279 52.2811 33.7735 52.1057C33.3967 51.9192 33.1691 51.6916 32.9527 51.2999C32.5834 50.6209 32.1245 50.2403 31.4343 50.0501C30.4829 49.7852 29.4234 50.1993 28.8713 51.0536C28.4198 51.7513 28.3937 52.6541 28.7966 53.4525C29.4122 54.6725 30.3971 55.6462 31.6581 56.2767C32.5423 56.7207 33.3818 56.9445 34.4599 57.0303C36.2955 57.1758 38.3026 56.5379 39.7838 55.3403L40.0859 55.0978L40.362 55.3179C42.3319 56.8923 44.9248 57.4407 47.2565 56.7692C49.092 56.2394 50.5284 55.0978 51.3417 53.5234C51.5693 53.0832 51.6625 52.7288 51.6625 52.3072C51.6625 51.6468 51.4499 51.1394 50.9723 50.6619C50.4687 50.162 49.9314 49.9531 49.2189 49.9866C48.3683 50.0277 47.6706 50.4791 47.2565 51.2551C46.8536 52.0124 46.1895 52.3631 45.1635 52.3631C44.6748 52.3631 44.3801 52.3034 43.9958 52.1244C43.2571 51.7811 42.7721 51.2924 42.2796 50.3858C42.164 50.1694 41.9961 49.9008 41.9066 49.7852L41.7424 49.5763L41.9364 49.4867C42.5408 49.2069 43.2683 48.5839 43.6376 48.0317C44.0518 47.4161 44.2383 46.6588 44.0704 46.2633C43.9473 45.9611 43.7123 46.0059 42.5968 46.5431C41.2686 47.1811 40.5262 47.3639 39.6606 47.2557C39.0301 47.1774 38.5526 47.0132 37.4259 46.476C36.4932 46.032 36.3664 45.9984 36.1985 46.1402Z" fill="#03F0F3"/>
</g>
<defs>
<clipPath id="clip0_50_93">
<rect width="80" height="67" fill="white"/>
</clipPath>
</defs>
</svg>
