<svg width="25" height="23" viewBox="0 0 25 23" fill="none" xmlns="http://www.w3.org/2000/svg">
<path d="M22.8627 1L13.8777 7.5625L15.5485 3.695L22.8627 1Z" fill="#E17726" stroke="#E17726" stroke-width="0.25" stroke-linecap="round" stroke-linejoin="round"/>
<path d="M2.13794 1L11.043 7.62374L9.45219 3.695L2.13794 1Z" fill="#E27625" stroke="#E27625" stroke-width="0.25" stroke-linecap="round" stroke-linejoin="round"/>
<path d="M19.6275 16.2162L17.2368 19.8212L22.3559 21.2124L23.8223 16.295L19.6275 16.2162Z" fill="#E27625" stroke="#E27625" stroke-width="0.25" stroke-linecap="round" stroke-linejoin="round"/>
<path d="M1.18713 16.295L2.64464 21.2124L7.75485 19.8212L5.37304 16.2162L1.18713 16.295Z" fill="#E27625" stroke="#E27625" stroke-width="0.25" stroke-linecap="round" stroke-linejoin="round"/>
<path d="M7.47895 10.1263L6.05701 12.2438L11.1227 12.4713L10.9539 7.09003L7.47895 10.1263Z" fill="#E27625" stroke="#E27625" stroke-width="0.25" stroke-linecap="round" stroke-linejoin="round"/>
<path d="M17.5214 10.1263L13.9932 7.02881L13.8777 12.4713L18.9434 12.2438L17.5214 10.1263Z" fill="#E27625" stroke="#E27625" stroke-width="0.25" stroke-linecap="round" stroke-linejoin="round"/>
<path d="M7.75488 19.8211L10.821 18.3599L8.18149 16.3299L7.75488 19.8211Z" fill="#E27625" stroke="#E27625" stroke-width="0.25" stroke-linecap="round" stroke-linejoin="round"/>
<path d="M14.1796 18.3599L17.2367 19.8211L16.819 16.3299L14.1796 18.3599Z" fill="#E27625" stroke="#E27625" stroke-width="0.25" stroke-linecap="round" stroke-linejoin="round"/>
<path d="M17.2367 19.8213L14.1796 18.3601L14.4284 20.3201L14.4017 21.1513L17.2367 19.8213Z" fill="#D5BFB2" stroke="#D5BFB2" stroke-width="0.25" stroke-linecap="round" stroke-linejoin="round"/>
<path d="M7.75488 19.8213L10.5988 21.1513L10.581 20.3201L10.821 18.3601L7.75488 19.8213Z" fill="#D5BFB2" stroke="#D5BFB2" stroke-width="0.25" stroke-linecap="round" stroke-linejoin="round"/>
<path d="M10.652 15.035L8.11023 14.3001L9.90545 13.4863L10.652 15.035Z" fill="#233447" stroke="#233447" stroke-width="0.25" stroke-linecap="round" stroke-linejoin="round"/>
<path d="M14.3485 15.035L15.0951 13.4863L16.8992 14.3001L14.3485 15.035Z" fill="#233447" stroke="#233447" stroke-width="0.25" stroke-linecap="round" stroke-linejoin="round"/>
<path d="M7.75494 19.8212L8.19933 16.2162L5.37317 16.295L7.75494 19.8212Z" fill="#CC6228" stroke="#CC6228" stroke-width="0.25" stroke-linecap="round" stroke-linejoin="round"/>
<path d="M16.8016 16.2162L17.2371 19.8212L19.6278 16.295L16.8016 16.2162Z" fill="#CC6228" stroke="#CC6228" stroke-width="0.25" stroke-linecap="round" stroke-linejoin="round"/>
<path d="M18.9434 12.2437L13.8777 12.4712L14.3487 15.035L15.0953 13.4862L16.8994 14.3L18.9434 12.2437Z" fill="#CC6228" stroke="#CC6228" stroke-width="0.25" stroke-linecap="round" stroke-linejoin="round"/>
<path d="M8.10996 14.3L9.90518 13.4862L10.6517 15.035L11.1227 12.4712L6.05701 12.2437L8.10996 14.3Z" fill="#CC6228" stroke="#CC6228" stroke-width="0.25" stroke-linecap="round" stroke-linejoin="round"/>
<path d="M6.05786 12.2437L8.18194 16.33L8.11079 14.3L6.05786 12.2437Z" fill="#E27525" stroke="#E27525" stroke-width="0.25" stroke-linecap="round" stroke-linejoin="round"/>
<path d="M16.8992 14.3L16.8192 16.33L18.9433 12.2437L16.8992 14.3Z" fill="#E27525" stroke="#E27525" stroke-width="0.25" stroke-linecap="round" stroke-linejoin="round"/>
<path d="M11.1218 12.4712L10.6508 15.035L11.2462 18.0624L11.3795 14.0724L11.1218 12.4712Z" fill="#E27525" stroke="#E27525" stroke-width="0.25" stroke-linecap="round" stroke-linejoin="round"/>
<path d="M13.8778 12.4712L13.6289 14.0637L13.7533 18.0624L14.3488 15.035L13.8778 12.4712Z" fill="#E27525" stroke="#E27525" stroke-width="0.25" stroke-linecap="round" stroke-linejoin="round"/>
<path d="M14.3491 15.035L13.7537 18.0625L14.1803 18.36L16.8198 16.33L16.8998 14.3L14.3491 15.035Z" fill="#F5841F" stroke="#F5841F" stroke-width="0.25" stroke-linecap="round" stroke-linejoin="round"/>
<path d="M8.11023 14.3L8.18138 16.33L10.8208 18.36L11.2475 18.0625L10.652 15.035L8.11023 14.3Z" fill="#F5841F" stroke="#F5841F" stroke-width="0.25" stroke-linecap="round" stroke-linejoin="round"/>
<path d="M14.4026 21.1512L14.4292 20.32L14.1982 20.1275H10.8032L10.581 20.32L10.5988 21.1512L7.75488 19.8212L8.75025 20.6262L10.7677 22H14.2248L16.2511 20.6262L17.2376 19.8212L14.4026 21.1512Z" fill="#C0AC9D" stroke="#C0AC9D" stroke-width="0.25" stroke-linecap="round" stroke-linejoin="round"/>
<path d="M14.1801 18.36L13.7535 18.0625H11.2473L10.8208 18.36L10.5808 20.32L10.803 20.1275H14.1979L14.429 20.32L14.1801 18.36Z" fill="#161616" stroke="#161616" stroke-width="0.25" stroke-linecap="round" stroke-linejoin="round"/>
<path d="M23.2445 7.99123L24 4.36875L22.8624 1L14.1796 7.34378L17.5211 10.1262L22.2403 11.4825L23.2801 10.2838L22.8269 9.95998L23.5467 9.31253L22.9957 8.89251L23.7156 8.35L23.2445 7.99123Z" fill="#763E1A" stroke="#763E1A" stroke-width="0.25" stroke-linecap="round" stroke-linejoin="round"/>
<path d="M1 4.36875L1.76431 7.99123L1.27551 8.35L2.00426 8.89251L1.45325 9.31253L2.17312 9.95998L1.71987 10.2838L2.75968 11.4825L7.47885 10.1262L10.8204 7.34378L2.13757 1L1 4.36875Z" fill="#763E1A" stroke="#763E1A" stroke-width="0.25" stroke-linecap="round" stroke-linejoin="round"/>
<path d="M22.2404 11.4824L17.5213 10.1262L18.9433 12.2437L16.8192 16.3299L19.6276 16.295H23.8224L22.2404 11.4824Z" fill="#F5841F" stroke="#F5841F" stroke-width="0.25" stroke-linecap="round" stroke-linejoin="round"/>
<path d="M7.47929 10.1262L2.76018 11.4824L1.18713 16.295H5.37304L8.18139 16.3299L6.05736 12.2437L7.47929 10.1262Z" fill="#F5841F" stroke="#F5841F" stroke-width="0.25" stroke-linecap="round" stroke-linejoin="round"/>
<path d="M13.8778 12.4712L14.1799 7.34366L15.5486 3.69495H9.4519L10.8205 7.34366L11.1227 12.4712L11.2382 14.0812L11.2471 18.0625H13.7533L13.7622 14.0812L13.8778 12.4712Z" fill="#F5841F" stroke="#F5841F" stroke-width="0.25" stroke-linecap="round" stroke-linejoin="round"/>
</svg>
