<svg xmlns="http://www.w3.org/2000/svg" width="58" height="26" viewBox="0 0 58 26" fill="none">
  <path d="M0.198853 15.0946V0.654903H2.19853V13.3476H9.3763V15.0946H0.198853Z" fill="white"></path>
  <path d="M17.3299 15.3472C15.8284 15.3472 14.5374 15.0736 13.4569 14.5263C12.3904 13.979 11.5625 13.1511 10.9731 12.0425C10.3977 10.9339 10.1101 9.54468 10.1101 7.87477C10.1101 6.19084 10.3977 4.80159 10.9731 3.70704C11.5625 2.59845 12.3904 1.77051 13.4569 1.22323C14.5374 0.675952 15.8284 0.402313 17.3299 0.402313C18.8314 0.402313 20.1154 0.675952 21.1819 1.22323C22.2625 1.77051 23.0904 2.59845 23.6657 3.70704C24.2551 4.80159 24.5498 6.19084 24.5498 7.87477C24.5498 9.54468 24.2551 10.9339 23.6657 12.0425C23.0904 13.1511 22.2625 13.979 21.1819 14.5263C20.1154 15.0736 18.8314 15.3472 17.3299 15.3472ZM17.3299 13.6212C18.1158 13.6212 18.8244 13.516 19.4559 13.3055C20.1014 13.095 20.6417 12.7652 21.0767 12.3162C21.5257 11.8531 21.8695 11.2777 22.1081 10.5901C22.3467 9.88848 22.4659 9.06054 22.4659 8.10631V7.66428C22.4659 6.69602 22.3467 5.86808 22.1081 5.18048C21.8695 4.47884 21.5257 3.90349 21.0767 3.45444C20.6417 2.99136 20.1014 2.65458 19.4559 2.44408C18.8244 2.23359 18.1158 2.12835 17.3299 2.12835C16.5301 2.12835 15.8144 2.23359 15.1829 2.44408C14.5514 2.65458 14.0112 2.99136 13.5621 3.45444C13.1131 3.90349 12.7693 4.47884 12.5307 5.18048C12.3062 5.86808 12.1939 6.69602 12.1939 7.66428V8.10631C12.1939 9.06054 12.3062 9.88848 12.5307 10.5901C12.7693 11.2777 13.1131 11.8531 13.5621 12.3162C14.0112 12.7652 14.5514 13.095 15.1829 13.3055C15.8144 13.516 16.5301 13.6212 17.3299 13.6212Z" fill="white"></path>
  <path d="M33.9395 15.3472C31.6101 15.3472 29.835 14.7368 28.6141 13.516C27.4073 12.2951 26.8039 10.4147 26.8039 7.87477C26.8039 6.2189 27.0845 4.83667 27.6458 3.72808C28.2071 2.61949 29.0351 1.79156 30.1296 1.24428C31.2242 0.682969 32.5573 0.402313 34.129 0.402313C35.1113 0.402313 36.0024 0.507559 36.8022 0.718051C37.6021 0.928542 38.2897 1.2513 38.8651 1.68631C39.4544 2.1073 39.9035 2.64054 40.2122 3.28605C40.535 3.93156 40.6963 4.69635 40.6963 5.58041H38.6546C38.6546 4.96297 38.5423 4.43674 38.3178 4.00172C38.0933 3.55267 37.7705 3.18782 37.3495 2.90717C36.9426 2.62651 36.4654 2.43005 35.9182 2.31779C35.3709 2.19149 34.7885 2.12835 34.1711 2.12835C33.3291 2.12835 32.5784 2.23359 31.9188 2.44408C31.2593 2.65458 30.705 2.98435 30.2559 3.4334C29.8069 3.88245 29.4631 4.45779 29.2245 5.15943C28.986 5.86107 28.8667 6.69602 28.8667 7.66428V8.10631C28.8667 9.41136 29.0632 10.4708 29.4561 11.2847C29.863 12.0986 30.4454 12.695 31.2031 13.0739C31.9609 13.4388 32.8731 13.6212 33.9395 13.6212C35.0201 13.6212 35.9112 13.4739 36.6128 13.1792C37.3144 12.8704 37.8336 12.4074 38.1704 11.7899C38.5213 11.1725 38.6967 10.3937 38.6967 9.45346V9.20087H33.6028V7.49589H40.7174V15.0946H39.2018L38.9913 13.2634C38.6125 13.7545 38.1634 14.1544 37.6442 14.4632C37.125 14.7719 36.5496 14.9964 35.9182 15.1367C35.3007 15.2771 34.6412 15.3472 33.9395 15.3472Z" fill="white"></path>
  <path d="M50.6715 15.3472C49.17 15.3472 47.879 15.0736 46.7985 14.5263C45.732 13.979 44.904 13.1511 44.3147 12.0425C43.7393 10.9339 43.4516 9.54468 43.4516 7.87477C43.4516 6.19084 43.7393 4.80159 44.3147 3.70704C44.904 2.59845 45.732 1.77051 46.7985 1.22323C47.879 0.675952 49.17 0.402313 50.6715 0.402313C52.173 0.402313 53.457 0.675952 54.5235 1.22323C55.604 1.77051 56.432 2.59845 57.0073 3.70704C57.5967 4.80159 57.8914 6.19084 57.8914 7.87477C57.8914 9.54468 57.5967 10.9339 57.0073 12.0425C56.432 13.1511 55.604 13.979 54.5235 14.5263C53.457 15.0736 52.173 15.3472 50.6715 15.3472ZM50.6715 13.6212C51.4573 13.6212 52.166 13.516 52.7975 13.3055C53.443 13.095 53.9832 12.7652 54.4183 12.3162C54.8673 11.8531 55.2111 11.2777 55.4497 10.5901C55.6882 9.88848 55.8075 9.06054 55.8075 8.10631V7.66428C55.8075 6.69602 55.6882 5.86808 55.4497 5.18048C55.2111 4.47884 54.8673 3.90349 54.4183 3.45444C53.9832 2.99136 53.443 2.65458 52.7975 2.44408C52.166 2.23359 51.4573 2.12835 50.6715 2.12835C49.8716 2.12835 49.156 2.23359 48.5245 2.44408C47.893 2.65458 47.3528 2.99136 46.9037 3.45444C46.4547 3.90349 46.1109 4.47884 45.8723 5.18048C45.6478 5.86808 45.5355 6.69602 45.5355 7.66428V8.10631C45.5355 9.06054 45.6478 9.88848 45.8723 10.5901C46.1109 11.2777 46.4547 11.8531 46.9037 12.3162C47.3528 12.7652 47.893 13.095 48.5245 13.3055C49.156 13.516 49.8716 13.6212 50.6715 13.6212Z" fill="white"></path>
  <path d="M2.20122 24.6417C1.93984 24.6417 1.68779 24.616 1.44508 24.5647C1.20704 24.5134 0.994666 24.4317 0.807965 24.3196C0.621264 24.203 0.471903 24.0536 0.359882 23.8716C0.252529 23.6895 0.198853 23.4655 0.198853 23.1994C0.198853 23.1761 0.198853 23.1528 0.198853 23.1294C0.20352 23.1061 0.205854 23.0828 0.205854 23.0594H0.877978C0.877978 23.0734 0.875644 23.0968 0.870977 23.1294C0.870977 23.1574 0.870977 23.1831 0.870977 23.2064C0.870977 23.3931 0.926987 23.5518 1.03901 23.6825C1.15103 23.8132 1.30506 23.9112 1.50109 23.9766C1.7018 24.0373 1.92817 24.0676 2.18022 24.0676C2.29224 24.0676 2.40893 24.0606 2.53028 24.0466C2.65631 24.0326 2.77533 24.0093 2.88735 23.9766C3.00404 23.9392 3.10672 23.8926 3.19541 23.8366C3.28876 23.7759 3.3611 23.7035 3.41245 23.6195C3.46846 23.5308 3.49646 23.4235 3.49646 23.2975C3.49646 23.1388 3.44979 23.0081 3.35644 22.9054C3.26775 22.798 3.14873 22.7117 2.99937 22.6463C2.85001 22.5763 2.67964 22.5156 2.48828 22.4643C2.30157 22.4083 2.10787 22.3546 1.90717 22.3033C1.70646 22.2519 1.51043 22.1936 1.31906 22.1282C1.13236 22.0582 0.964327 21.9742 0.814966 21.8762C0.665605 21.7735 0.54425 21.6475 0.450899 21.4981C0.362216 21.3488 0.317875 21.1667 0.317875 20.952C0.317875 20.7513 0.357549 20.5716 0.436896 20.4129C0.520912 20.2542 0.642268 20.1212 0.800964 20.0139C0.964327 19.9018 1.16503 19.8178 1.40308 19.7618C1.64112 19.7011 1.91417 19.6708 2.22223 19.6708C2.47427 19.6708 2.70765 19.6988 2.92236 19.7548C3.14173 19.8061 3.3331 19.8878 3.49646 19.9999C3.66449 20.1072 3.79518 20.2449 3.88853 20.4129C3.98188 20.581 4.02856 20.784 4.02856 21.022V21.1061H3.37044V21.001C3.37044 20.8423 3.32143 20.707 3.22341 20.595C3.12539 20.4829 2.99003 20.3966 2.81734 20.3359C2.6493 20.2752 2.45794 20.2449 2.24323 20.2449C1.96318 20.2449 1.7298 20.2729 1.5431 20.3289C1.3564 20.3803 1.21637 20.4573 1.12302 20.56C1.03434 20.658 0.989999 20.77 0.989999 20.896C0.989999 21.0407 1.03434 21.1621 1.12302 21.2601C1.21637 21.3581 1.33773 21.4398 1.48709 21.5051C1.63645 21.5658 1.80682 21.6218 1.99818 21.6732C2.18955 21.7245 2.38326 21.7782 2.57929 21.8342C2.78 21.8855 2.9737 21.9462 3.1604 22.0162C3.35177 22.0816 3.52213 22.1656 3.67149 22.2683C3.82552 22.3663 3.94688 22.4923 4.03556 22.6463C4.12424 22.7957 4.16859 22.9801 4.16859 23.1994C4.16859 23.5402 4.08457 23.8179 3.91654 24.0326C3.74851 24.2426 3.51747 24.3967 3.22341 24.4947C2.92936 24.5927 2.58863 24.6417 2.20122 24.6417Z" fill="white"></path>
  <path d="M6.16992 24.6417C5.81518 24.6417 5.53046 24.5507 5.31576 24.3687C5.10105 24.1866 4.9937 23.8692 4.9937 23.4165V20.875H5.60981V23.3325C5.60981 23.4865 5.62848 23.6125 5.66582 23.7105C5.70316 23.8086 5.75684 23.8856 5.82685 23.9416C5.89687 23.9976 5.97855 24.0373 6.0719 24.0606C6.16992 24.0839 6.27494 24.0956 6.38696 24.0956C6.56432 24.0956 6.72768 24.0536 6.87705 23.9696C7.02641 23.8856 7.14776 23.7642 7.24111 23.6055C7.33913 23.4422 7.38814 23.2531 7.38814 23.0384V20.875H8.00425V24.5577H7.50716L7.45115 24.0046H7.40214C7.30413 24.154 7.1921 24.2753 7.06608 24.3687C6.94473 24.462 6.80703 24.5297 6.65301 24.5717C6.50364 24.6184 6.34261 24.6417 6.16992 24.6417Z" fill="white"></path>
  <path d="M8.96009 25.7689V20.875H9.45019L9.5132 21.4001H9.56221C9.68823 21.1947 9.84926 21.043 10.0453 20.945C10.2413 20.8423 10.463 20.791 10.7104 20.791C11.0185 20.791 11.2799 20.8587 11.4946 20.994C11.7093 21.1294 11.875 21.3418 11.9917 21.6312C12.1083 21.9159 12.1667 22.2869 12.1667 22.7444C12.1667 23.1738 12.106 23.5308 11.9847 23.8156C11.868 24.0956 11.7023 24.3033 11.4876 24.4387C11.2729 24.574 11.0231 24.6417 10.7384 24.6417C10.5797 24.6417 10.4304 24.623 10.2903 24.5857C10.1503 24.5484 10.0243 24.49 9.91227 24.4107C9.80025 24.3266 9.70223 24.2216 9.61822 24.0956H9.57621V25.7689H8.96009ZM10.5424 24.1026C10.7711 24.1026 10.9578 24.0583 11.1025 23.9696C11.2472 23.8762 11.3545 23.7339 11.4245 23.5425C11.4946 23.3465 11.5296 23.0968 11.5296 22.7934V22.6463C11.5296 22.3243 11.4922 22.0676 11.4175 21.8762C11.3429 21.6802 11.2332 21.5401 11.0885 21.4561C10.9485 21.3721 10.7734 21.3301 10.5634 21.3301C10.3347 21.3301 10.1456 21.3814 9.99629 21.4841C9.85159 21.5821 9.74424 21.7315 9.67423 21.9322C9.60888 22.1329 9.57621 22.378 9.57621 22.6673V22.7724C9.57621 23.0291 9.59955 23.2438 9.64622 23.4165C9.69756 23.5845 9.76758 23.7199 9.85626 23.8226C9.94961 23.9252 10.0546 23.9976 10.1713 24.0396C10.288 24.0816 10.4117 24.1026 10.5424 24.1026Z" fill="white"></path>
  <path d="M14.4028 24.6417C14.0387 24.6417 13.7307 24.574 13.4786 24.4387C13.2312 24.2986 13.0422 24.0863 12.9115 23.8016C12.7855 23.5168 12.7225 23.1551 12.7225 22.7164C12.7225 22.2729 12.7855 21.9112 12.9115 21.6312C13.0422 21.3464 13.2336 21.1364 13.4856 21.001C13.7377 20.861 14.0527 20.791 14.4308 20.791C14.7762 20.791 15.0656 20.8587 15.2989 20.994C15.5323 21.1247 15.7074 21.3231 15.824 21.5891C15.9454 21.8505 16.0061 22.1796 16.0061 22.5763V22.8704H13.3596C13.3689 23.1644 13.4109 23.4071 13.4856 23.5985C13.565 23.7852 13.6816 23.9229 13.8357 24.0116C13.9897 24.0956 14.1834 24.1376 14.4168 24.1376C14.5755 24.1376 14.7132 24.1189 14.8299 24.0816C14.9512 24.0396 15.0516 23.9813 15.1309 23.9066C15.2149 23.8319 15.2779 23.7432 15.3199 23.6405C15.362 23.5378 15.3853 23.4258 15.39 23.3045H15.9921C15.9874 23.5005 15.9501 23.6825 15.8801 23.8506C15.81 24.0139 15.7074 24.154 15.572 24.2706C15.4366 24.3873 15.2709 24.4783 15.0749 24.5437C14.8789 24.609 14.6548 24.6417 14.4028 24.6417ZM13.3736 22.4083H15.369C15.369 22.2029 15.3456 22.0302 15.2989 21.8902C15.2523 21.7502 15.1846 21.6358 15.0959 21.5471C15.0119 21.4585 14.9115 21.3954 14.7949 21.3581C14.6828 21.3161 14.5545 21.2951 14.4098 21.2951C14.1951 21.2951 14.013 21.3348 13.8637 21.4141C13.7143 21.4935 13.6 21.6148 13.5206 21.7782C13.4413 21.9415 13.3923 22.1516 13.3736 22.4083Z" fill="white"></path>
  <path d="M16.7682 24.5577V20.875H17.2653L17.3213 21.4841H17.3703C17.4076 21.3674 17.459 21.2578 17.5243 21.1551C17.5897 21.0477 17.6783 20.9614 17.7904 20.896C17.9024 20.826 18.0401 20.791 18.2034 20.791C18.2735 20.791 18.3365 20.798 18.3925 20.812C18.4532 20.8213 18.4975 20.833 18.5255 20.847V21.4141H18.2945C18.1358 21.4141 17.9981 21.4421 17.8814 21.4981C17.7694 21.5495 17.676 21.6242 17.6013 21.7222C17.5266 21.8202 17.4706 21.9369 17.4333 22.0722C17.4006 22.2076 17.3843 22.3523 17.3843 22.5063V24.5577H16.7682Z" fill="white"></path>
  <path d="M22.3026 24.6417C22.0412 24.6417 21.7892 24.616 21.5464 24.5647C21.3084 24.5134 21.096 24.4317 20.9093 24.3196C20.7226 24.203 20.5733 24.0536 20.4612 23.8716C20.3539 23.6895 20.3002 23.4655 20.3002 23.1994C20.3002 23.1761 20.3002 23.1528 20.3002 23.1294C20.3049 23.1061 20.3072 23.0828 20.3072 23.0594H20.9793C20.9793 23.0734 20.977 23.0968 20.9723 23.1294C20.9723 23.1574 20.9723 23.1831 20.9723 23.2064C20.9723 23.3931 21.0284 23.5518 21.1404 23.6825C21.2524 23.8132 21.4064 23.9112 21.6025 23.9766C21.8032 24.0373 22.0295 24.0676 22.2816 24.0676C22.3936 24.0676 22.5103 24.0606 22.6316 24.0466C22.7577 24.0326 22.8767 24.0093 22.9887 23.9766C23.1054 23.9392 23.2081 23.8926 23.2968 23.8366C23.3901 23.7759 23.4625 23.7035 23.5138 23.6195C23.5698 23.5308 23.5978 23.4235 23.5978 23.2975C23.5978 23.1388 23.5512 23.0081 23.4578 22.9054C23.3691 22.798 23.2501 22.7117 23.1007 22.6463C22.9514 22.5763 22.781 22.5156 22.5896 22.4643C22.4029 22.4083 22.2092 22.3546 22.0085 22.3033C21.8078 22.2519 21.6118 22.1936 21.4204 22.1282C21.2337 22.0582 21.0657 21.9742 20.9163 21.8762C20.767 21.7735 20.6456 21.6475 20.5523 21.4981C20.4636 21.3488 20.4192 21.1667 20.4192 20.952C20.4192 20.7513 20.4589 20.5716 20.5383 20.4129C20.6223 20.2542 20.7436 20.1212 20.9023 20.0139C21.0657 19.9018 21.2664 19.8178 21.5044 19.7618C21.7425 19.7011 22.0155 19.6708 22.3236 19.6708C22.5756 19.6708 22.809 19.6988 23.0237 19.7548C23.2431 19.8061 23.4345 19.8878 23.5978 19.9999C23.7659 20.1072 23.8966 20.2449 23.9899 20.4129C24.0833 20.581 24.1299 20.784 24.1299 21.022V21.1061H23.4718V21.001C23.4718 20.8423 23.4228 20.707 23.3248 20.595C23.2268 20.4829 23.0914 20.3966 22.9187 20.3359C22.7507 20.2752 22.5593 20.2449 22.3446 20.2449C22.0645 20.2449 21.8312 20.2729 21.6445 20.3289C21.4578 20.3803 21.3177 20.4573 21.2244 20.56C21.1357 20.658 21.0914 20.77 21.0914 20.896C21.0914 21.0407 21.1357 21.1621 21.2244 21.2601C21.3177 21.3581 21.4391 21.4398 21.5885 21.5051C21.7378 21.5658 21.9082 21.6218 22.0996 21.6732C22.2909 21.7245 22.4846 21.7782 22.6807 21.8342C22.8814 21.8855 23.0751 21.9462 23.2618 22.0162C23.4531 22.0816 23.6235 22.1656 23.7729 22.2683C23.9269 22.3663 24.0482 22.4923 24.1369 22.6463C24.2256 22.7957 24.27 22.9801 24.27 23.1994C24.27 23.5402 24.1859 23.8179 24.0179 24.0326C23.8499 24.2426 23.6188 24.3967 23.3248 24.4947C23.0307 24.5927 22.69 24.6417 22.3026 24.6417Z" fill="white"></path>
  <path d="M25.1301 24.5577V20.875H25.6272L25.6832 21.4281H25.7322C25.8255 21.2788 25.9306 21.1574 26.0472 21.064C26.1639 20.9707 26.2923 20.903 26.4323 20.861C26.5723 20.8143 26.724 20.791 26.8874 20.791C27.1254 20.791 27.3308 20.84 27.5035 20.938C27.6762 21.0314 27.8046 21.1947 27.8886 21.4281H27.9306C28.0193 21.2788 28.122 21.1597 28.2386 21.071C28.3553 20.9777 28.486 20.9077 28.6307 20.861C28.7754 20.8143 28.9294 20.791 29.0928 20.791C29.3168 20.791 29.5129 20.8307 29.6809 20.91C29.8489 20.9847 29.9796 21.1107 30.073 21.2881C30.171 21.4608 30.22 21.6942 30.22 21.9882V24.5577H29.6039V22.0862C29.6039 21.9369 29.5852 21.8132 29.5479 21.7152C29.5152 21.6171 29.4662 21.5425 29.4009 21.4911C29.3355 21.4351 29.2585 21.3954 29.1698 21.3721C29.0858 21.3488 28.9948 21.3371 28.8968 21.3371C28.7334 21.3371 28.5817 21.3791 28.4417 21.4631C28.3063 21.5471 28.1966 21.6685 28.1126 21.8272C28.0286 21.9859 27.9866 22.1749 27.9866 22.3943V24.5577H27.3705V22.0862C27.3705 21.9369 27.3518 21.8132 27.3145 21.7152C27.2771 21.6171 27.2281 21.5425 27.1674 21.4911C27.1068 21.4351 27.0321 21.3954 26.9434 21.3721C26.8594 21.3488 26.7707 21.3371 26.6774 21.3371C26.5093 21.3371 26.353 21.3791 26.2083 21.4631C26.0682 21.5471 25.9562 21.6685 25.8722 21.8272C25.7882 21.9859 25.7462 22.1749 25.7462 22.3943V24.5577H25.1301Z" fill="white"></path>
  <path d="M32.0778 24.6417C31.9425 24.6417 31.8071 24.6254 31.6717 24.5927C31.5364 24.56 31.4104 24.5063 31.2937 24.4317C31.177 24.357 31.0836 24.2543 31.0136 24.1236C30.9436 23.9883 30.9086 23.8202 30.9086 23.6195C30.9086 23.3675 30.9693 23.1598 31.0906 22.9964C31.212 22.833 31.38 22.707 31.5947 22.6183C31.8141 22.525 32.0731 22.462 32.3719 22.4293C32.6706 22.392 32.995 22.3733 33.3451 22.3733V21.9532C33.3451 21.8179 33.3217 21.7012 33.275 21.6031C33.2284 21.5051 33.1443 21.4304 33.023 21.3791C32.9063 21.3231 32.7383 21.2951 32.5189 21.2951C32.3089 21.2951 32.1408 21.3231 32.0148 21.3791C31.8934 21.4304 31.8071 21.4981 31.7558 21.5821C31.7091 21.6662 31.6857 21.7595 31.6857 21.8622V21.9672H31.0906C31.086 21.9439 31.0836 21.9205 31.0836 21.8972C31.0836 21.8739 31.0836 21.8459 31.0836 21.8132C31.0836 21.5891 31.1443 21.4024 31.2657 21.2531C31.3917 21.0991 31.5667 20.9847 31.7908 20.91C32.0148 20.8307 32.2715 20.791 32.5609 20.791C32.869 20.791 33.1257 20.8353 33.3311 20.924C33.5411 21.0127 33.6974 21.1387 33.8001 21.3021C33.9075 21.4655 33.9612 21.6615 33.9612 21.8902V23.8856C33.9612 23.9743 33.9822 24.0373 34.0242 24.0746C34.0662 24.1073 34.1175 24.1236 34.1782 24.1236H34.4513V24.5297C34.3859 24.5577 34.3136 24.581 34.2342 24.5997C34.1549 24.623 34.0639 24.6347 33.9612 24.6347C33.8398 24.6347 33.7395 24.609 33.6601 24.5577C33.5808 24.511 33.5201 24.4457 33.4781 24.3617C33.4361 24.273 33.4081 24.175 33.3941 24.0676H33.3451C33.261 24.1843 33.1537 24.287 33.023 24.3757C32.897 24.4597 32.7546 24.525 32.5959 24.5717C32.4372 24.6184 32.2645 24.6417 32.0778 24.6417ZM32.2318 24.1236C32.3812 24.1236 32.5212 24.1003 32.6519 24.0536C32.7873 24.0069 32.9063 23.9416 33.009 23.8576C33.1117 23.7689 33.1934 23.6639 33.254 23.5425C33.3147 23.4211 33.3451 23.2881 33.3451 23.1434V22.8354C32.967 22.8354 32.6449 22.8564 32.3789 22.8984C32.1128 22.9404 31.9075 23.0151 31.7628 23.1224C31.6227 23.2298 31.5527 23.3815 31.5527 23.5775C31.5527 23.7035 31.5807 23.8062 31.6367 23.8856C31.6927 23.9649 31.7721 24.0256 31.8748 24.0676C31.9775 24.1049 32.0965 24.1236 32.2318 24.1236Z" fill="white"></path>
  <path d="M36.257 24.6417C36.005 24.6417 35.7833 24.616 35.5919 24.5647C35.4006 24.5134 35.2419 24.4387 35.1158 24.3407C34.9898 24.2426 34.8941 24.1259 34.8288 23.9906C34.7634 23.8552 34.7308 23.7012 34.7308 23.5285C34.7308 23.5052 34.7308 23.4842 34.7308 23.4655C34.7308 23.4422 34.7331 23.4235 34.7378 23.4095H35.3469C35.3422 23.4282 35.3399 23.4445 35.3399 23.4585C35.3399 23.4725 35.3399 23.4865 35.3399 23.5005C35.3445 23.6639 35.3865 23.7922 35.4659 23.8856C35.5499 23.9789 35.6643 24.0443 35.809 24.0816C35.9537 24.1189 36.1147 24.1376 36.292 24.1376C36.4461 24.1376 36.5884 24.1189 36.7191 24.0816C36.8498 24.0396 36.9525 23.9789 37.0272 23.8996C37.1065 23.8156 37.1462 23.7105 37.1462 23.5845C37.1462 23.4305 37.0949 23.3138 36.9922 23.2344C36.8942 23.1504 36.7635 23.0851 36.6001 23.0384C36.4367 22.9917 36.2664 22.9427 36.089 22.8914C35.9397 22.8494 35.7903 22.8027 35.6409 22.7514C35.4916 22.7 35.3562 22.637 35.2349 22.5623C35.1182 22.4876 35.0225 22.392 34.9478 22.2753C34.8778 22.1539 34.8428 22.0022 34.8428 21.8202C34.8428 21.6568 34.8755 21.5121 34.9408 21.3861C35.0108 21.2601 35.1088 21.1527 35.2349 21.064C35.3609 20.9754 35.5126 20.91 35.6899 20.868C35.872 20.8213 36.0727 20.798 36.292 20.798C36.5254 20.798 36.7285 20.8237 36.9012 20.875C37.0785 20.9264 37.2256 20.9987 37.3422 21.0921C37.4589 21.1854 37.5453 21.2928 37.6013 21.4141C37.6573 21.5308 37.6853 21.6568 37.6853 21.7922C37.6853 21.8202 37.6853 21.8482 37.6853 21.8762C37.6853 21.8995 37.683 21.9182 37.6783 21.9322H37.0762V21.8552C37.0762 21.7618 37.0505 21.6732 36.9992 21.5891C36.9525 21.5005 36.8685 21.4304 36.7471 21.3791C36.6304 21.3231 36.4671 21.2951 36.257 21.2951C36.1217 21.2951 36.005 21.3068 35.907 21.3301C35.809 21.3488 35.7273 21.3814 35.6619 21.4281C35.5966 21.4701 35.5476 21.5215 35.5149 21.5821C35.4822 21.6382 35.4659 21.7035 35.4659 21.7782C35.4659 21.8995 35.5056 21.9929 35.5849 22.0582C35.6643 22.1236 35.7693 22.1773 35.9 22.2193C36.0353 22.2613 36.18 22.3079 36.3341 22.3593C36.4974 22.406 36.6631 22.455 36.8311 22.5063C37.0038 22.553 37.1602 22.6137 37.3002 22.6883C37.4449 22.763 37.5593 22.8657 37.6433 22.9964C37.732 23.1224 37.7763 23.2905 37.7763 23.5005C37.7763 23.6965 37.739 23.8669 37.6643 24.0116C37.5896 24.1563 37.4823 24.2753 37.3422 24.3687C37.2069 24.462 37.0459 24.5297 36.8591 24.5717C36.6771 24.6184 36.4764 24.6417 36.257 24.6417Z" fill="white"></path>
  <path d="M38.5378 24.5577V19.4958H39.1539V21.3371H39.2029C39.2963 21.2111 39.4013 21.1084 39.518 21.029C39.6347 20.9497 39.763 20.8913 39.9031 20.854C40.0478 20.812 40.2041 20.791 40.3722 20.791C40.6055 20.791 40.8086 20.8307 40.9813 20.91C41.1586 20.9894 41.2963 21.1177 41.3943 21.2951C41.497 21.4725 41.5484 21.7128 41.5484 22.0162V24.5577H40.9323V22.1002C40.9323 21.9462 40.9113 21.8202 40.8693 21.7222C40.8319 21.6242 40.7782 21.5471 40.7082 21.4911C40.6429 21.4351 40.5612 21.3954 40.4632 21.3721C40.3698 21.3488 40.2648 21.3371 40.1481 21.3371C39.9754 21.3371 39.8121 21.3791 39.658 21.4631C39.504 21.5425 39.3803 21.6615 39.287 21.8202C39.1983 21.9742 39.1539 22.1656 39.1539 22.3943V24.5577H38.5378Z" fill="white"></path>
  <path d="M44.0651 24.5577V19.7548H46.5435C46.8189 19.7548 47.057 19.8038 47.2577 19.9018C47.4584 19.9952 47.6124 20.1282 47.7197 20.3009C47.8318 20.4736 47.8878 20.679 47.8878 20.917C47.8878 21.0991 47.8551 21.2671 47.7898 21.4211C47.7244 21.5751 47.6334 21.7035 47.5167 21.8062C47.4 21.9089 47.267 21.9859 47.1176 22.0372V22.0652C47.2857 22.1026 47.4374 22.1703 47.5727 22.2683C47.7081 22.3663 47.8154 22.497 47.8948 22.6603C47.9788 22.819 48.0208 23.0151 48.0208 23.2485C48.0208 23.5612 47.9555 23.8132 47.8248 24.0046C47.6941 24.196 47.519 24.336 47.2997 24.4247C47.0803 24.5134 46.8282 24.5577 46.5435 24.5577H44.0651ZM44.7302 23.9836H46.5365C46.7746 23.9836 46.9683 23.9229 47.1176 23.8016C47.267 23.6755 47.3417 23.4678 47.3417 23.1784C47.3417 23.0011 47.309 22.854 47.2437 22.7374C47.1783 22.616 47.0826 22.5273 46.9566 22.4713C46.8306 22.4106 46.6719 22.3803 46.4805 22.3803H44.7302V23.9836ZM44.7302 21.8132H46.4175C46.5762 21.8132 46.7139 21.7828 46.8306 21.7222C46.9473 21.6568 47.0383 21.5681 47.1036 21.4561C47.1736 21.3394 47.2086 21.2087 47.2086 21.064C47.2086 20.812 47.141 20.6276 47.0056 20.5109C46.8703 20.3896 46.6906 20.3289 46.4665 20.3289H44.7302V21.8132Z" fill="white"></path>
  <path d="M48.8346 24.5577V20.875H49.3317L49.3877 21.4841H49.4368C49.4741 21.3674 49.5254 21.2578 49.5908 21.1551C49.6561 21.0477 49.7448 20.9614 49.8568 20.896C49.9689 20.826 50.1065 20.791 50.2699 20.791C50.3399 20.791 50.4029 20.798 50.4589 20.812C50.5196 20.8213 50.564 20.833 50.592 20.847V21.4141H50.3609C50.2022 21.4141 50.0645 21.4421 49.9478 21.4981C49.8358 21.5495 49.7425 21.6242 49.6678 21.7222C49.5931 21.8202 49.5371 21.9369 49.4998 22.0722C49.4671 22.2076 49.4508 22.3523 49.4508 22.5063V24.5577H48.8346Z" fill="white"></path>
  <path d="M52.6032 24.6417C52.2298 24.6417 51.9147 24.574 51.658 24.4387C51.406 24.2986 51.2123 24.0863 51.0769 23.8016C50.9462 23.5168 50.8809 23.1551 50.8809 22.7164C50.8809 22.2729 50.9462 21.9112 51.0769 21.6312C51.2123 21.3464 51.406 21.1364 51.658 21.001C51.9147 20.861 52.2298 20.791 52.6032 20.791C52.9766 20.791 53.2893 20.861 53.5414 21.001C53.7981 21.1364 53.9918 21.3464 54.1225 21.6312C54.2532 21.9112 54.3185 22.2729 54.3185 22.7164C54.3185 23.1551 54.2532 23.5168 54.1225 23.8016C53.9918 24.0863 53.7981 24.2986 53.5414 24.4387C53.2893 24.574 52.9766 24.6417 52.6032 24.6417ZM52.6032 24.1236C52.8412 24.1236 53.0396 24.0769 53.1983 23.9836C53.357 23.8902 53.476 23.7455 53.5554 23.5495C53.6394 23.3488 53.6814 23.0968 53.6814 22.7934V22.6393C53.6814 22.3313 53.6394 22.0792 53.5554 21.8832C53.476 21.6872 53.357 21.5425 53.1983 21.4491C53.0396 21.3558 52.8412 21.3091 52.6032 21.3091C52.3652 21.3091 52.1644 21.3558 52.0011 21.4491C51.8424 21.5425 51.7234 21.6872 51.644 21.8832C51.5647 22.0792 51.525 22.3313 51.525 22.6393V22.7934C51.525 23.0968 51.5647 23.3488 51.644 23.5495C51.7234 23.7455 51.8424 23.8902 52.0011 23.9836C52.1644 24.0769 52.3652 24.1236 52.6032 24.1236Z" fill="white"></path>
  <path d="M56.3721 24.6417C56.12 24.6417 55.8983 24.616 55.707 24.5647C55.5156 24.5134 55.3569 24.4387 55.2309 24.3407C55.1048 24.2426 55.0092 24.1259 54.9438 23.9906C54.8785 23.8552 54.8458 23.7012 54.8458 23.5285C54.8458 23.5052 54.8458 23.4842 54.8458 23.4655C54.8458 23.4422 54.8481 23.4235 54.8528 23.4095H55.4619C55.4572 23.4282 55.4549 23.4445 55.4549 23.4585C55.4549 23.4725 55.4549 23.4865 55.4549 23.5005C55.4596 23.6639 55.5016 23.7922 55.5809 23.8856C55.665 23.9789 55.7793 24.0443 55.924 24.0816C56.0687 24.1189 56.2297 24.1376 56.4071 24.1376C56.5611 24.1376 56.7035 24.1189 56.8342 24.0816C56.9649 24.0396 57.0675 23.9789 57.1422 23.8996C57.2216 23.8156 57.2612 23.7105 57.2612 23.5845C57.2612 23.4305 57.2099 23.3138 57.1072 23.2344C57.0092 23.1504 56.8785 23.0851 56.7151 23.0384C56.5518 22.9917 56.3814 22.9427 56.204 22.8914C56.0547 22.8494 55.9053 22.8027 55.756 22.7514C55.6066 22.7 55.4712 22.637 55.3499 22.5623C55.2332 22.4876 55.1375 22.392 55.0628 22.2753C54.9928 22.1539 54.9578 22.0022 54.9578 21.8202C54.9578 21.6568 54.9905 21.5121 55.0558 21.3861C55.1258 21.2601 55.2239 21.1527 55.3499 21.064C55.4759 20.9754 55.6276 20.91 55.805 20.868C55.987 20.8213 56.1877 20.798 56.4071 20.798C56.6405 20.798 56.8435 20.8237 57.0162 20.875C57.1936 20.9264 57.3406 20.9987 57.4573 21.0921C57.574 21.1854 57.6603 21.2928 57.7163 21.4141C57.7723 21.5308 57.8003 21.6568 57.8003 21.7922C57.8003 21.8202 57.8003 21.8482 57.8003 21.8762C57.8003 21.8995 57.798 21.9182 57.7933 21.9322H57.1912V21.8552C57.1912 21.7618 57.1656 21.6732 57.1142 21.5891C57.0675 21.5005 56.9835 21.4304 56.8622 21.3791C56.7455 21.3231 56.5821 21.2951 56.3721 21.2951C56.2367 21.2951 56.12 21.3068 56.022 21.3301C55.924 21.3488 55.8423 21.3814 55.777 21.4281C55.7116 21.4701 55.6626 21.5215 55.6299 21.5821C55.5973 21.6382 55.5809 21.7035 55.5809 21.7782C55.5809 21.8995 55.6206 21.9929 55.7 22.0582C55.7793 22.1236 55.8843 22.1773 56.015 22.2193C56.1504 22.2613 56.2951 22.3079 56.4491 22.3593C56.6125 22.406 56.7782 22.455 56.9462 22.5063C57.1189 22.553 57.2752 22.6137 57.4153 22.6883C57.56 22.763 57.6743 22.8657 57.7583 22.9964C57.847 23.1224 57.8914 23.2905 57.8914 23.5005C57.8914 23.6965 57.854 23.8669 57.7793 24.0116C57.7047 24.1563 57.5973 24.2753 57.4573 24.3687C57.3219 24.462 57.1609 24.5297 56.9742 24.5717C56.7922 24.6184 56.5915 24.6417 56.3721 24.6417Z" fill="white"></path>
</svg>