<?xml version="1.0" encoding="iso-8859-1"?>
<!-- Uploaded to: SVG Repo, www.svgrepo.com, Generator: SVG Repo Mixer Tools -->
<svg version="1.1" id="Layer_1" xmlns="http://www.w3.org/2000/svg" xmlns:xlink="http://www.w3.org/1999/xlink" 
	 viewBox="0 0 512 512" xml:space="preserve">
<circle style="fill:#E0E0E0;" cx="256" cy="256" r="256"/>
<rect x="64" y="164" style="fill:#FFFFFF;" width="384" height="232"/>
<rect x="64" y="116" width="384" height="48.08"/>
<circle style="fill:#00C454;" cx="97.144" cy="140.04" r="6.696"/>
<circle style="fill:#FFFFFF;" cx="117.224" cy="140.04" r="6.696"/>
<g>
	<circle style="fill:#666666;" cx="137.28" cy="140.04" r="6.696"/>
	<polygon style="fill:#666666;" points="400,151.8 192.328,151.8 206.672,128.288 414.352,128.288 	"/>
</g>
<g>
	<path style="fill:#FFFFFF;" d="M221.784,134.792l1.392,5.344c0.304,1.168,0.584,2.256,0.784,3.344h0.064
		c0.24-1.064,0.584-2.192,0.936-3.32l1.712-5.368h1.608l1.632,5.256c0.392,1.256,0.696,2.368,0.928,3.432h0.072
		c0.168-1.064,0.456-2.168,0.808-3.408l1.504-5.28h1.888l-3.392,10.512h-1.744l-1.608-5.016c-0.368-1.176-0.672-2.216-0.928-3.464
		h-0.048c-0.256,1.264-0.584,2.352-0.952,3.48l-1.696,5H223l-3.168-10.512L221.784,134.792L221.784,134.792z"/>
	<path style="fill:#FFFFFF;" d="M238,134.792l1.392,5.344c0.304,1.168,0.584,2.256,0.784,3.344h0.072
		c0.232-1.064,0.584-2.192,0.928-3.32l1.72-5.368h1.608l1.624,5.256c0.392,1.256,0.696,2.368,0.936,3.432h0.064
		c0.168-1.064,0.464-2.168,0.808-3.408l1.504-5.28h1.888l-3.392,10.512H246.2l-1.608-5.016c-0.368-1.176-0.672-2.216-0.936-3.464
		h-0.04c-0.264,1.264-0.584,2.352-0.96,3.48l-1.696,5h-1.736l-3.168-10.512L238,134.792L238,134.792z"/>
	<path style="fill:#FFFFFF;" d="M254.216,134.792l1.392,5.344c0.304,1.168,0.584,2.256,0.784,3.344h0.072
		c0.232-1.064,0.584-2.192,0.928-3.32l1.72-5.368h1.608l1.624,5.256c0.392,1.256,0.696,2.368,0.936,3.432h0.064
		c0.168-1.064,0.464-2.168,0.808-3.408l1.504-5.28h1.888l-3.392,10.512h-1.736l-1.608-5.016c-0.368-1.176-0.672-2.216-0.936-3.464
		h-0.04c-0.264,1.264-0.584,2.352-0.96,3.48l-1.696,5h-1.736l-3.168-10.512L254.216,134.792L254.216,134.792z"/>
</g>
<g>
	<polygon style="fill:#666666;" points="64,372.688 126.144,372.688 149.456,396 64,396 	"/>
	<polygon style="fill:#666666;" points="448,372.688 385.856,372.688 362.544,396 448,396 	"/>
</g>
<path d="M150.256,252.312l6.704,25.776c1.464,5.648,2.824,10.888,3.768,16.136h0.312c1.152-5.136,2.824-10.584,4.504-16.032
	l8.28-25.88h7.752l7.856,25.352c1.888,6.072,3.36,11.416,4.504,16.552h0.312c0.832-5.136,2.2-10.48,3.872-16.448l7.224-25.456h9.12
	l-16.344,50.704h-8.384l-7.752-24.2c-1.784-5.656-3.248-10.688-4.504-16.664h-0.2c-1.256,6.08-2.824,11.32-4.608,16.768
	l-8.176,24.096h-8.384l-15.288-50.704L150.256,252.312L150.256,252.312z"/>
<path d="M228.6,252.312l6.704,25.776c1.464,5.648,2.824,10.888,3.768,16.136h0.312c1.152-5.136,2.824-10.584,4.504-16.032
	l8.28-25.88h7.752l7.856,25.352c1.888,6.072,3.36,11.416,4.504,16.552h0.312c0.832-5.136,2.2-10.48,3.872-16.448l7.224-25.456h9.12
	l-16.344,50.704h-8.384l-7.752-24.2c-1.784-5.656-3.248-10.688-4.504-16.664h-0.208c-1.256,6.08-2.824,11.32-4.608,16.768
	l-8.176,24.096h-8.384l-15.288-50.704L228.6,252.312L228.6,252.312z"/>
<path d="M306.952,252.312l6.704,25.776c1.464,5.648,2.824,10.888,3.768,16.136h0.312c1.152-5.136,2.824-10.584,4.504-16.032
	l8.28-25.88h7.752l7.856,25.352c1.888,6.072,3.36,11.416,4.504,16.552h0.312c0.832-5.136,2.2-10.48,3.872-16.448l7.224-25.456h9.12
	l-16.344,50.704h-8.384l-7.752-24.2c-1.784-5.656-3.248-10.688-4.504-16.664h-0.208c-1.256,6.08-2.824,11.32-4.608,16.768
	l-8.176,24.096H312.8l-15.288-50.704L306.952,252.312L306.952,252.312z"/>
</svg>